<?xml version="1.0" encoding="UTF-8"?>
<svg width="276px" height="40px" viewBox="0 0 276 40" version="1.1" xmlns="http://www.w3.org/2000/svg" xmlns:xlink="http://www.w3.org/1999/xlink">
    <title>AB logo</title>
    <g id="OneSpan-Quiz_demo_v1" stroke="none" stroke-width="1" fill="none" fill-rule="evenodd">
        <g id="Desktop-HD_Quiz_AB_OneSpan-demo_question-02_default" transform="translate(-120.000000, -20.000000)" fill="#231F20">
            <g id="global_quiz_hdr" transform="translate(100.000000, 0.000000)">
                <g id="Group" transform="translate(20.000000, 20.000000)">
                    <g id="Group-27" transform="translate(0.000000, 0.000000)">
                        <path d="M7.75908772,24.7785731 L10.5738246,8.66021053 L13.1076257,24.7785731 L7.75908772,24.7785731 Z M46.3284444,5.90348538 L49.0772164,5.90348538 L49.0772164,4.32711111 L42.0514854,4.32711111 L36.4400234,29.6410292 L30.6842339,4.32711111 L23.1516023,4.32711111 L23.1516023,5.90348538 L26.2666901,5.90348538 L26.2666901,30.5196257 C26.2673918,32.6637193 26.0185029,36.6225497 25.9195556,38.1168187 L22.5279766,38.1168187 L22.5279766,38.118924 L20.2739415,38.118924 L13.646807,0.385122807 L10.5237661,0.385122807 L5.46177778,28.1186901 C4.74575439,32.2583392 3.85476023,36.6719064 3.55908772,38.118924 L2.33918129e-05,38.118924 L2.33918129e-05,39.7610292 L0.615695906,39.7610292 L9.51838596,39.7610292 L9.51838596,38.118924 L5.90715789,38.118924 C6.22411696,35.941848 7.18294737,29.3032515 7.49476023,26.4945965 L13.478152,26.4945965 L15.369848,38.1177544 L12.7307836,38.118924 L12.7307836,39.7610292 L23.9485614,39.7610292 L23.9485614,39.7596257 L31.4762807,39.7596257 L31.4762807,38.1163509 L28.4372164,38.1163509 C28.3546433,36.7537778 28.1644678,33.3076959 28.1644678,30.5196257 L28.1644678,13.0777544 L34.3431813,39.8181053 L35.8299649,39.8181053 L41.9249357,12.0255906 L41.9249357,38.1163509 L39.0802573,38.1163509 L39.0802573,39.7596257 L49.1345263,39.7596257 L49.1345263,38.1163509 L46.3284444,38.1163509 L46.3284444,5.90348538 Z" id="Fill-1"></path>
                        <path d="M50.9183626,5.96519298 L53.6795322,5.96519298 L53.6795322,38.1446082 L50.9183626,38.1446082 L50.9183626,38.782269 L50.9183626,39.1810994 L50.9183626,39.8185263 L66.474386,39.8185263 L66.474386,27.2201637 L64.740117,27.2201637 L64.740117,27.856655 C64.7419883,31.2449591 64.1157895,33.8835556 63.1847953,35.6187602 C62.2432749,37.3654269 61.0725146,38.1474152 59.9307602,38.1446082 L58.0348538,38.1446082 L58.0348538,21.4358363 C58.5150877,21.5317427 58.8764912,21.7212164 58.9419883,21.8072982 L58.965848,21.8306901 L58.9936842,21.8543158 C59.7499415,22.428117 60.3076023,24.045193 60.5501754,25.5237895 C60.8081871,26.9944327 60.8283041,28.3277661 60.8276023,28.3530292 L60.8276023,28.9897544 L62.5621053,28.9897544 L62.5621053,12.1191111 L60.8276023,12.1191111 L60.8276023,12.7567719 C60.8283041,12.7810994 60.8091228,14.1134971 60.5501754,15.5941988 C60.305731,17.079345 59.7525146,18.7134971 58.9840936,19.3230877 L58.9611696,19.3425029 L58.9419883,19.3628538 C58.9015205,19.4327953 58.5349708,19.6030877 58.0348538,19.6858947 L58.0348538,5.96519298 L59.9307602,5.96519298 C61.0647953,5.96051462 62.2407018,6.76261988 63.1838596,8.53478363 C64.1157895,10.2950175 64.7419883,12.9577076 64.740117,16.3457778 L64.740117,16.9827368 L66.474386,16.9827368 L66.474386,4.3860117 L50.9183626,4.3860117 L50.9183626,5.96519298 Z" id="Fill-3"></path>
                        <path d="M78.8796725,7.45094737 C79.3690292,8.03246784 79.7622456,9.35340351 79.9601404,10.6050994 C80.1690292,11.8574971 80.2261053,13.0659181 80.2254035,13.4865029 C80.2356959,15.5103626 79.8195556,18.0511813 78.921076,19.3870877 C78.3035322,20.2923509 77.7844678,20.6558596 77.1531228,20.8642807 C76.6478596,21.029193 76.0225965,21.0710643 75.2340585,21.0801871 L75.2340585,5.95831579 C76.4944094,5.992 78.0055205,6.21281871 78.8586199,7.42311111 L78.8675088,7.43527485 L78.8796725,7.45094737 Z M88.3133567,31.1084912 C88.0684444,31.0981988 87.7283275,31.2422924 87.5458713,31.5187836 C87.3606082,31.7898947 87.2997895,32.1035789 87.2972164,32.4881404 L87.2972164,33.7882573 C87.2997895,35.5150409 87.0101988,36.7052164 86.6279766,37.3980819 C86.2319532,38.0956257 85.8443509,38.2797193 85.4492632,38.2874386 C85.298152,38.2787836 85.2569825,38.2598363 85.1365146,38.1332865 C84.7404912,37.7482573 84.5032982,36.0392515 84.5332398,34.0366784 L84.5332398,29.2079064 C84.5613099,26.9007719 83.9650526,25.4004211 82.3323041,23.752 C81.1961637,22.6436959 80.098152,22.1068538 79.109848,21.7924678 C83.3208421,19.9353918 84.8024795,16.623345 84.7666901,13.4865029 C84.7458713,10.7903626 83.4845848,8.27129825 82.4974503,7.17515789 C80.3622456,4.672 77.2864561,4.3725848 74.5970994,4.37351829 L68.4859883,4.37351829 L68.4859883,5.95363743 L70.926924,5.95363743 L70.926924,38.1648655 L68.4859883,38.1648655 L68.4859883,39.8069708 L69.1227135,39.8069708 L78.0988538,39.8069708 L78.0988538,38.1648655 L75.2340585,38.1648655 L75.2340585,22.7971462 C76.6499649,22.8397193 78.0448187,23.0787836 79.0087953,24.032 C80.3280936,25.3012398 80.395462,27.5901287 80.3814269,29.4563275 L80.3814269,34.2212398 C80.3842339,35.4308304 80.6450526,36.8008889 81.2916023,37.9417076 C81.9213099,39.074807 83.0516023,40.0048655 84.5956959,39.9952749 C84.6204912,39.9952749 84.6455205,39.9957427 84.6700819,39.9957427 C86.1147602,39.9957427 87.152655,39.3440468 87.8864561,38.3973801 C89.0520702,36.914807 89.3884444,34.5512982 89.4024795,32.4881404 C89.3999064,32.197848 89.3603743,31.9157427 89.2048187,31.6373801 C89.0644678,31.3592515 88.6946433,31.0944561 88.3133567,31.1084912 L88.3133567,31.1084912 Z" id="Fill-5"></path>
                        <polygon id="Fill-7" points="89.1780117 5.96519298 91.5237427 5.96519298 91.5237427 38.136655 89.5864327 38.136655 89.5864327 38.7743158 89.5864327 39.1810994 89.5864327 39.8185263 98.0596491 39.8185263 98.0596491 38.1373567 95.7866667 38.1373567 95.7866667 5.96519298 98.0596491 5.96519298 98.0596491 4.3860117 89.1780117 4.3860117"></polygon>
                        <path d="M113.043953,26.5306901 C112.98945,26.3699883 112.883251,26.1756023 112.692608,26.0324444 C112.502901,25.8869474 112.261497,25.8258947 112.049567,25.8289357 C111.591322,25.8053099 111.209333,26.2315088 111.14945,26.5131462 C111.051205,26.8090526 111.041614,27.0857778 111.038807,27.3973567 C111.039743,28.7456608 110.996702,31.5330292 110.427579,33.9182924 C110.146643,35.1091696 109.728632,36.1922105 109.17448,36.9239064 C108.609801,37.6563041 107.992959,38.0406316 107.107111,38.0495205 C107.05331,38.0495205 106.998105,38.0485848 106.941029,38.0485848 C106.368398,38.0467135 106.099626,38.0258947 105.804655,37.8062456 C105.497988,37.5830877 105.06945,36.9945497 104.582199,35.6768889 C104.019158,34.1468304 103.701029,31.3189942 103.555298,28.6867135 C103.403485,26.0476491 103.403485,23.5767719 103.403485,22.6177076 C103.40255,17.0520936 103.654713,12.6544327 104.284421,9.71852632 C104.596,8.25162573 105.008632,7.15665497 105.475298,6.48718129 C105.955532,5.81560234 106.386877,5.5802807 106.955064,5.56952047 C107.620795,5.57302924 108.177754,5.91033918 108.729099,6.61630409 C110.396,8.72507602 111.060795,13.8406316 111.038807,16.3491696 L111.038807,16.9858947 L111.675532,16.9858947 L112.049567,16.9858947 L112.687462,16.9858947 L112.687462,3.79878288 L111.189918,3.79878288 L111.189918,4.43665497 C111.193427,4.55080702 111.143368,4.83712281 111.031088,5.00554386 C110.905474,5.17419883 110.825708,5.27431579 110.45752,5.28928655 C110.091205,5.29209357 109.876234,5.10051462 109.360444,4.68367251 C108.87483,4.28273684 108.109918,3.78706433 106.955064,3.79878288 C105.566526,3.8008655 104.337754,4.55712281 103.312023,5.69864327 C100.250503,9.13607018 98.3859415,16.3377076 98.3658246,22.6177076 C98.3686316,26.6034386 99.0647719,30.8074152 100.469216,34.0834386 C101.173544,35.7210994 102.055415,37.130924 103.15483,38.1585263 C104.249333,39.185193 105.593895,39.8209825 107.107111,39.8181754 C107.112491,39.8181754 107.118105,39.8186433 107.123953,39.8186433 C108.359275,39.8186433 109.40793,39.2389942 110.18524,38.3795789 C112.508281,35.7830877 113.109684,30.7292865 113.134246,27.3344327 C113.129333,27.1143158 113.148515,26.856538 113.043953,26.5306901" id="Fill-9"></path>
                        <path d="M119.098854,26.2305263 L121.48786,12.4338012 L123.638503,26.2305263 L119.098854,26.2305263 Z M143.355696,5.96526316 L145.80014,5.96526316 C145.820491,7.38210526 145.867509,10.9184795 145.867509,13.6232749 L145.867509,27.1708772 L139.808327,4.38608187 L132.115228,4.38608187 L132.115228,5.96526316 L135.204819,5.96526316 L135.20552,30.5814035 C135.206222,32.294152 134.953591,36.5926316 134.85745,38.1753216 L133.463298,38.1753216 L132.115228,38.1753216 L130.186573,38.1753216 L124.298854,4.38608187 L121.371602,4.38608187 L116.86283,29.291345 C116.238035,32.9322807 115.463298,36.8111111 115.187041,38.1753216 L112.433825,38.1753216 L112.433825,39.8185965 L113.071251,39.8185965 L120.64552,39.8185965 L120.64552,38.1753216 L117.450433,38.1753216 C117.742129,36.1535673 118.556632,30.4569591 118.837567,27.9378947 L123.994994,27.9378947 L125.648561,38.1753216 L123.318737,38.1753216 L123.318737,39.8185965 L132.115228,39.8185965 L133.463298,39.8185965 L139.842012,39.8185965 L139.842012,38.1753216 L137.45324,38.1753216 C137.375579,36.5956725 137.175111,32.3463158 137.175579,30.5814035 L137.175579,10.3360234 L144.931135,39.8185965 L147.837333,39.8185965 L147.837333,13.6232749 C147.837333,11.3814035 148.084117,7.45134503 148.18283,5.96526316 L151.353591,5.96526316 L151.353591,4.38608187 L143.355696,4.38608187 L143.355696,5.96526316 Z" id="Fill-11"></path>
                        <path d="M171.775789,29.338152 C171.773684,31.7323041 171.522456,33.9491462 170.203626,36.2558129 C168.941871,37.9711345 167.063275,38.1252865 165.569474,38.1374503 L165.569474,19.0862222 C167.171111,19.1124211 168.574386,19.2789708 169.987251,20.8763977 C170.802222,21.9259883 171.790292,24.9973333 171.775789,29.338152 M171.248538,10.1327719 C171.275906,13.8120702 169.269825,16.3000234 168.193567,16.7442339 C167.379766,17.1178012 166.355439,17.2172164 165.569474,17.2406082 L165.569474,1.63008187 C167.696491,1.69323977 168.502105,2.00832749 169.625848,2.93581287 C171.148421,4.2820117 171.285497,8.33557895 171.248538,10.1327719 M174.845731,21.5280936 C173.269825,19.5774503 171.800351,18.6403743 169.958713,18.0663392 C171.111228,17.6092632 172.261404,16.9089123 173.268187,15.9875088 C174.956842,14.441076 176.231228,12.2223626 176.229591,9.504 C176.243626,5.90236257 174.673099,3.42423392 172.463275,1.97323977 C170.258363,0.513122807 167.481754,0.00294736842 164.932749,0.000140350877 L157.592632,0.000140350877 L157.592632,1.61908772 L160.847368,1.61908772 L160.847368,38.1374503 L157.592632,38.1374503 L157.592632,39.818152 L158.229357,39.818152 L164.932749,39.818152 C168.280117,39.8165146 171.373684,39.0700819 173.670292,37.2850526 C175.972047,35.501193 177.387953,32.6616608 177.378643,28.7793216 C177.375789,26.4132398 176.637544,23.6955789 174.845731,21.5280936" id="Fill-13"></path>
                        <path d="M181.591673,26.2305263 L183.983719,12.4323977 L186.135766,26.2305263 L181.591673,26.2305263 Z M206.415532,5.96526316 L208.856234,5.96526316 C208.877287,7.38140351 208.924304,10.9184795 208.923836,13.6235088 L208.923836,27.1638596 L202.875181,4.38608187 L195.191906,4.38608187 L195.191906,5.96526316 L198.27752,5.96526316 L198.27752,30.5816374 C198.277988,32.2936842 198.025825,36.5930994 197.92945,38.1753216 L195.965006,38.1753216 L195.191906,38.1753216 L192.68524,38.1753216 L186.795415,4.38608187 L183.867462,4.38608187 L179.354713,29.2918129 C178.730854,32.9327485 177.955415,36.8122807 177.67869,38.1753216 L174.500912,38.1753216 L174.500912,39.8185965 L175.13717,39.8185965 L183.139275,39.8185965 L183.139275,38.1753216 L179.943251,38.1753216 C180.235649,36.1535673 181.05062,30.4562573 181.331556,27.9378947 L186.492491,27.9378947 L188.14676,38.1753216 L185.815064,38.1753216 L185.815064,39.8185965 L195.965006,39.8185965 L195.965006,39.8181287 L202.90793,39.8181287 L202.90793,38.1753216 L200.522433,38.1753216 C200.44524,36.5956725 200.245006,32.3465497 200.245708,30.5816374 L200.245708,10.3385965 L207.989333,39.8181287 L210.892257,39.8181287 L210.892257,13.6235088 C210.892257,11.3816374 211.138573,7.45204678 211.236351,5.96526316 L213.558924,5.96526316 L213.558924,4.38608187 L206.415532,4.38608187 L206.415532,5.96526316 Z" id="Fill-15"></path>
                        <path d="M224.762363,16.9584327 L226.285871,13.7741053 C227.206807,11.7722339 229.291251,7.28100585 229.902713,5.96545029 L233.115579,5.96545029 L233.115579,4.38650292 L225.725871,4.38650292 L225.725871,5.96545029 L227.777099,5.96545029 C227.51207,6.61925146 227.126807,7.56708772 226.724,8.55328655 C225.993474,10.3411228 225.193474,12.2774971 224.978971,12.7331696 L221.225754,20.4288421 L221.225754,5.96545029 L223.909497,5.96545029 L223.909497,4.38533333 L214.280257,4.38533333 L214.280257,5.96545029 L216.847977,5.96545029 L216.847977,38.1755088 L214.491953,38.1755088 L214.491953,38.8127018 L214.491953,39.1813567 L214.491953,39.8185497 L223.174526,39.8185497 L223.174526,38.1755088 L221.225754,38.1755088 L221.225754,24.1762105 L221.973357,22.7460351 L226.483298,38.1755088 L225.069263,38.1755088 L225.069263,39.8185497 L233.353708,39.8185497 L233.353708,38.1755088 L230.901544,38.1755088 L224.762363,16.9584327 Z" id="Fill-17"></path>
                        <path d="M234.643345,5.96507602 L236.980421,5.96507602 L236.980421,38.1833216 L234.852702,38.1833216 L234.852702,38.8214503 L234.852702,39.1809825 L234.852702,39.8181754 L249.763111,39.8181754 L249.763111,27.2202807 L248.028374,27.2202807 L248.028374,27.8577076 C248.030947,31.2457778 247.40545,33.8939649 246.474222,35.6396959 C245.533404,37.3973567 244.361474,38.1875322 243.225801,38.1833216 L241.332234,38.1833216 L241.33317,21.4361871 C241.812468,21.5323275 242.17317,21.7206316 242.238199,21.8069474 L242.263462,21.8331462 L242.289895,21.8539649 C243.044515,22.4277661 243.601474,24.045076 243.843345,25.5218012 C244.102058,26.9947836 244.121006,28.3274152 244.121006,28.3533801 L244.121006,28.9898713 L245.855275,28.9898713 L245.855275,12.1192281 L244.121006,12.1192281 L244.121006,12.756655 C244.121006,12.7819181 244.102058,14.1140819 243.843345,15.5940819 C243.60007,17.079462 243.046386,18.7143158 242.280304,19.3236725 L242.256678,19.3426199 L242.237263,19.3634386 C242.197497,19.4326784 241.832117,19.6027368 241.33317,19.6860117 L241.33317,5.96507602 L243.225801,5.96507602 C244.356795,5.96133333 245.531532,6.76180117 246.474222,8.53466667 C247.40545,10.2949006 248.030947,12.9575906 248.028374,16.3456608 L248.028374,16.9830877 L249.763111,16.9830877 L249.763111,4.38589474 L234.643345,4.38589474 L234.643345,5.96507602 Z" id="Fill-19"></path>
                        <path d="M261.858713,7.25150877 C262.348538,7.83373099 262.742222,9.15349708 262.940117,10.4061287 C263.147602,11.6578246 263.205614,12.8669474 263.204912,13.2877661 C263.214737,15.3111579 262.799064,17.8517427 261.900585,19.1895205 C261.283041,20.093848 260.763275,20.4568889 260.132865,20.6653099 C259.627135,20.8299883 259.002105,20.8720936 258.213567,20.8807485 L258.213567,5.75911111 C259.474152,5.79302924 260.984795,6.01384795 261.838129,7.22437427 L261.850994,7.24238596 L261.858713,7.25150877 Z M272.184795,31.4395789 C272.044678,31.1609825 271.67462,30.8952515 271.293333,30.9097544 C271.047018,30.8992281 270.707836,31.0440234 270.525146,31.3200468 C270.339415,31.5913918 270.27883,31.905076 270.276725,32.2896374 C270.276023,32.5998129 270.276023,33.0943158 270.276725,33.5895205 C270.27883,35.3163041 269.988538,36.4943158 269.608655,37.1759532 C269.214971,37.8587602 268.831111,38.0384094 268.42924,38.0472982 C268.273216,38.0384094 268.231345,38.0185263 268.112749,37.8950175 C267.721871,37.5240234 267.482339,35.8407485 267.512047,33.8370058 L267.512047,29.0089357 C267.541053,26.7013333 266.943392,25.2014503 265.311111,23.5525614 C264.175906,22.4444912 263.07883,21.908117 262.090994,21.5941988 C266.300585,19.7361871 267.782222,16.4243743 267.746433,13.2877661 C267.726082,10.5911579 266.46386,8.0725614 265.477193,6.9757193 C263.34152,4.47349708 260.266199,4.17384795 257.576842,4.17478145 L251.465497,4.17478145 L251.465497,5.75396491 L253.905263,5.75396491 L253.905263,37.9663626 L251.465497,37.9663626 L251.465497,39.6084678 L252.102222,39.6084678 L261.078129,39.6084678 L261.078129,37.9663626 L258.213567,37.9663626 L258.213567,22.5979415 C259.628772,22.6412164 261.02386,22.8798129 261.987836,23.8332632 C263.307368,25.102269 263.374503,27.3906901 263.360702,29.2573567 L263.360702,34.022269 C263.363977,35.2320936 263.623626,36.6072982 264.269708,37.7516257 C264.89848,38.8905731 266.028304,39.8276491 267.574971,39.8185263 C267.597895,39.8189942 267.620819,39.819462 267.643509,39.819462 C269.100351,39.819462 270.134971,39.1399298 270.866667,38.1979415 C272.030175,36.7156023 272.36655,34.3523275 272.381053,32.2896374 C272.378713,31.999345 272.33848,31.7167719 272.184795,31.4395789 L272.184795,31.4395789 Z" id="Fill-21"></path>
                        <path d="M273.81848,39.5560936 C273.149006,39.5560936 272.636491,39.0283743 272.636491,38.3289591 C272.636491,37.6445146 273.149006,37.1165614 273.81848,37.1165614 C274.480234,37.1165614 274.992515,37.6445146 274.992515,38.3289591 C274.992515,39.0283743 274.480234,39.5560936 273.81848,39.5560936 M273.81848,36.906269 C273.034152,36.906269 272.376608,37.5217076 272.376608,38.3289591 C272.376608,39.1511813 273.034152,39.7666199 273.81848,39.7666199 C274.598363,39.7666199 275.252398,39.1511813 275.252398,38.3289591 C275.252398,37.5217076 274.598363,36.906269 273.81848,36.906269" id="Fill-23"></path>
                        <path d="M273.791509,38.2412164 L273.520164,38.2412164 L273.520164,37.7095205 L273.864257,37.7095205 C274.03993,37.7095205 274.231275,37.7439064 274.231275,37.9656608 C274.231275,38.2292865 274.020749,38.2412164 273.791509,38.2412164 M274.491158,37.9773567 C274.491158,37.6559532 274.303556,37.4987602 273.906129,37.4987602 L273.260281,37.4987602 L273.260281,39.1703392 L273.520164,39.1703392 L273.520164,38.450807 L273.795251,38.450807 L274.250222,39.1703392 L274.529287,39.1703392 L274.051392,38.4316257 C274.300047,38.405193 274.491158,38.279345 274.491158,37.9773567" id="Fill-25"></path>
                    </g>
                </g>
            </g>
        </g>
    </g>
</svg>